<!DOCTYPE svg PUBLIC "-//W3C//DTD SVG 20010904//EN" "http://www.w3.org/TR/2001/REC-SVG-20010904/DTD/svg10.dtd">
<svg version="1.0" xmlns="http://www.w3.org/2000/svg" width="542px" height="611px" viewBox="0 0 5420 6110" preserveAspectRatio="xMidYMid meet">
<g id="layer101" fill="#000000" stroke="none">
 <path d="M2475 6103 c-11 -2 -53 -15 -92 -28 -40 -14 -97 -28 -128 -31 -35 -4 -72 -17 -101 -36 -39 -24 -45 -32 -39 -51 10 -31 9 -47 -9 -181 -14 -108 -21 -130 -70 -230 -58 -117 -75 -174 -76 -243 0 -23 -15 -90 -34 -150 -19 -60 -39 -154 -46 -208 -8 -71 -27 -147 -65 -260 -29 -88 -56 -180 -60 -205 -15 -98 -127 -284 -204 -336 -46 -31 -104 -47 -142 -39 -45 10 -35 28 11 20 45 -8 65 2 118 54 37 38 87 136 107 211 18 66 19 184 3 248 -10 41 -26 62 -135 167 -124 122 -145 155 -98 155 53 0 101 -31 191 -127 88 -92 92 -95 104 -74 8 17 9 35 1 73 -12 52 -12 51 33 133 9 17 16 48 16 71 0 46 24 132 51 186 11 21 42 118 70 215 57 204 73 249 123 353 52 109 45 146 -20 103 -56 -36 -116 -160 -177 -359 l-32 -107 -55 -19 c-45 -16 -71 -18 -142 -13 -106 8 -121 1 -209 -90 -81 -85 -95 -92 -121 -68 -34 31 -50 72 -78 212 -32 154 -44 191 -62 191 -36 -1 -63 -52 -73 -135 -18 -153 -70 -297 -132 -366 -39 -43 -121 -89 -160 -89 -27 0 -51 32 -59 80 -15 80 -33 84 -82 17 -16 -23 -44 -58 -61 -77 -42 -45 -46 -67 -31 -158 8 -51 10 -117 5 -199 -8 -136 1 -180 42 -225 l26 -27 -55 -58 c-86 -92 -105 -114 -117 -137 -6 -11 -34 -104 -61 -206 -41 -153 -47 -187 -36 -198 11 -11 10 -26 -5 -85 -11 -39 -19 -81 -19 -93 0 -20 -3 -21 -38 -13 -21 4 -70 22 -109 39 -40 16 -81 30 -92 30 -32 0 -51 -38 -51 -102 0 -73 4 -76 183 -124 l137 -37 12 -44 c8 -33 21 -52 57 -81 25 -20 73 -60 106 -88 64 -55 158 -118 199 -134 16 -6 26 -20 31 -42 10 -46 50 -105 88 -128 43 -27 110 -26 154 1 l33 21 96 -79 c168 -138 175 -143 202 -143 42 0 122 57 187 132 33 38 61 66 63 60 6 -18 -40 -124 -69 -157 -16 -18 -41 -37 -56 -43 -16 -6 -59 -23 -98 -37 -72 -28 -105 -54 -105 -85 0 -10 20 -46 45 -81 155 -220 209 -337 295 -644 60 -213 106 -370 129 -445 12 -36 30 -121 41 -189 22 -133 54 -223 143 -395 60 -118 84 -147 168 -205 35 -24 84 -68 109 -98 25 -30 102 -104 172 -164 126 -109 127 -111 178 -214 80 -163 116 -195 222 -195 69 0 132 30 228 107 101 82 328 316 417 432 83 106 179 292 243 471 23 63 56 153 73 200 17 47 46 114 64 149 22 41 41 99 53 161 29 150 90 257 254 445 229 261 302 377 332 522 28 131 6 222 -70 291 -20 18 -36 37 -36 42 0 14 61 50 83 50 47 0 135 58 228 150 141 139 211 229 276 354 65 126 125 196 248 289 119 91 165 137 187 187 11 25 37 68 59 96 43 56 62 104 49 124 -6 10 -22 11 -72 3 -81 -14 -92 -6 -79 62 13 70 10 73 -67 68 -52 -3 -75 0 -101 14 -78 41 -95 105 -63 240 12 48 26 122 33 163 6 42 26 107 45 149 40 86 42 119 12 198 -17 47 -39 75 -120 156 -66 66 -108 117 -128 157 -28 56 -33 60 -65 60 -43 0 -55 17 -94 129 -16 45 -37 91 -46 101 -40 44 -81 15 -116 -80 -22 -61 -23 -62 -55 -55 -18 3 -109 30 -201 60 -275 88 -279 89 -415 74 -148 -15 -209 -9 -295 31 -158 73 -236 73 -351 -2 -49 -32 -76 -43 -117 -46 -131 -11 -193 48 -324 303 -87 172 -121 212 -202 240 -41 15 -74 17 -114 8z m1589 -2003 c12 -19 35 -66 51 -105 37 -90 72 -144 113 -172 39 -26 126 -53 171 -53 35 0 81 -19 81 -33 0 -9 -28 -8 -188 9 l-64 7 20 -39 c31 -60 97 -125 195 -192 26 -18 47 -34 47 -36 0 -2 -18 0 -40 4 -40 7 -86 37 -141 91 -16 16 -32 29 -35 29 -8 0 -2 -32 30 -167 24 -103 26 -143 6 -143 -4 0 -22 42 -40 93 -43 125 -99 242 -143 300 -26 33 -33 47 -22 48 8 1 20 3 25 4 6 1 15 3 21 4 24 2 -3 86 -56 175 -54 90 -85 168 -85 215 0 21 2 22 16 10 9 -8 26 -30 38 -49z m-3814 -459 c52 -18 127 -46 167 -63 64 -26 73 -33 88 -70 9 -22 14 -42 12 -45 -6 -5 -282 61 -352 84 -95 31 -119 43 -106 56 6 6 11 32 11 59 l0 47 43 -18 c23 -10 85 -32 137 -50z m2220 -100 c0 -18 -56 -48 -215 -116 -235 -100 -494 -233 -573 -295 -14 -11 -27 -18 -30 -15 -10 10 102 116 175 165 74 49 308 172 404 211 108 44 239 71 239 50z"/>
 </g>
<g id="layer102" fill="#0287c8" stroke="none">
 <path d="M4474 5176 c-95 -31 -164 -92 -164 -144 0 -27 18 -28 136 -8 139 22 172 12 256 -78 40 -42 50 -48 58 -36 10 14 6 172 -6 212 -14 49 -191 84 -280 54z"/>
 <path d="M3958 5094 c-47 -25 -31 -76 54 -174 32 -37 40 -41 66 -35 16 3 40 17 52 30 18 20 22 32 17 64 -13 98 -111 158 -189 115z"/>
 <path d="M3700 4992 c-19 -15 -25 -29 -25 -61 0 -37 6 -46 45 -82 86 -77 132 -82 165 -19 25 48 19 105 -14 142 -24 27 -36 32 -87 36 -48 3 -64 0 -84 -16z"/>
 <path d="M4391 4986 l-85 -11 -12 -50 c-7 -27 -19 -60 -26 -73 -10 -19 -10 -25 2 -32 23 -15 29 -12 44 23 17 41 52 70 113 93 l47 18 107 -37 c58 -20 112 -37 118 -37 17 0 -17 41 -69 85 -38 32 -47 35 -98 33 -32 0 -95 -6 -141 -12z"/>
 <path d="M4174 4963 c-3 -16 -20 -45 -36 -66 -17 -21 -27 -41 -24 -45 4 -3 33 -8 65 -10 52 -4 60 -2 75 19 9 14 16 43 16 70 0 51 -9 59 -61 59 -23 0 -30 -5 -35 -27z"/>
 <path d="M3907 4850 c-12 -41 -25 -65 -42 -76 l-25 -16 22 -39 c27 -49 62 -73 93 -65 61 15 109 144 69 180 -42 36 -92 76 -96 76 -3 0 -12 -27 -21 -60z"/>
 <path d="M4423 4889 c-24 -7 -34 -17 -39 -37 -6 -29 -36 -139 -82 -297 -16 -55 -32 -122 -36 -149 l-6 -49 92 6 c51 3 121 11 155 18 l62 11 50 126 c62 161 90 266 75 290 -17 27 -137 82 -190 87 -27 2 -64 0 -81 -6z"/>
 <path d="M3510 4820 c-20 -20 -26 -63 -14 -95 4 -9 42 -43 85 -76 l79 -60 40 22 c71 40 76 104 12 160 -74 65 -164 87 -202 49z"/>
 <path d="M4060 4789 c0 -29 -33 -104 -55 -125 -23 -23 -18 -32 21 -40 92 -17 162 28 171 110 6 52 -2 58 -90 71 -45 7 -47 6 -47 -16z"/>
 <path d="M4227 4773 c-3 -5 -7 -29 -11 -54 -4 -30 -15 -54 -31 -69 -29 -27 -32 -50 -7 -50 9 0 26 -3 38 -6 17 -5 23 2 37 38 28 73 38 131 24 140 -15 10 -45 10 -50 1z"/>
 <path d="M1010 4753 c-43 -15 -198 -98 -217 -116 -27 -25 -30 -54 -5 -61 9 -3 47 -10 84 -16 l66 -12 8 -76 c6 -62 4 -86 -11 -122 -30 -78 -30 -114 -1 -165 32 -54 49 -56 104 -12 64 51 84 82 91 145 7 62 17 86 32 77 19 -13 7 -88 -31 -196 -22 -62 -40 -116 -40 -121 0 -11 90 1 106 14 7 5 14 19 17 31 2 12 16 65 31 117 18 64 26 121 27 176 1 107 -32 182 -121 277 -52 56 -67 67 -94 66 -17 0 -38 -3 -46 -6z"/>
 <path d="M3767 4665 c-11 -25 -32 -56 -48 -69 -16 -14 -29 -27 -29 -30 0 -14 63 -36 103 -36 69 0 112 49 91 105 -5 13 -84 75 -96 75 -2 0 -11 -20 -21 -45z"/>
 <path d="M3910 4603 c0 -6 -14 -28 -31 -49 -28 -36 -29 -39 -13 -51 28 -20 107 -16 136 7 27 21 40 60 27 81 -9 15 -119 26 -119 12z"/>
 <path d="M4045 4551 c-10 -23 -24 -46 -32 -52 -7 -6 -13 -17 -13 -24 0 -18 93 -39 135 -31 41 8 75 47 75 87 0 30 -23 42 -106 55 -39 6 -40 5 -59 -35z"/>
 <path d="M702 4533 c-45 -25 -251 -249 -273 -298 -16 -36 -64 -222 -77 -299 l-5 -29 54 6 c30 3 118 17 196 32 l141 27 36 96 c33 90 116 402 116 436 0 10 -23 20 -69 30 -86 20 -79 20 -119 -1z m38 -263 c0 -23 -5 -30 -19 -30 -23 0 -35 28 -20 46 20 24 39 16 39 -16z m-222 -38 c-4 -22 -46 -28 -54 -8 -4 9 -1 23 6 31 16 19 53 1 48 -23z m167 -202 c0 -31 -31 -39 -40 -11 -8 26 2 43 23 39 11 -2 17 -13 17 -28z m-246 -17 c12 -23 -4 -54 -24 -47 -8 4 -15 16 -15 28 0 38 22 48 39 19z"/>
 <path d="M3350 4490 c-39 -39 -19 -80 73 -146 28 -21 58 -46 65 -56 12 -17 15 -17 52 2 40 21 70 63 70 99 0 47 -121 121 -197 121 -30 0 -49 -6 -63 -20z"/>
 <path d="M3619 4367 c-8 -23 -27 -56 -42 -74 l-29 -32 34 -21 c18 -11 46 -20 61 -20 61 0 117 60 117 125 0 28 -30 46 -96 58 -29 6 -32 4 -45 -36z"/>
 <path d="M4053 4390 c-27 -11 -28 -16 -7 -65 8 -21 14 -51 12 -69 -3 -29 -1 -31 27 -28 17 2 55 13 85 24 30 11 76 28 102 37 59 20 62 34 6 29 -39 -3 -44 0 -72 39 -29 39 -34 42 -81 42 -27 0 -60 -4 -72 -9z"/>
 <path d="M3785 4367 c-2 -7 -9 -30 -16 -52 -6 -22 -25 -59 -40 -82 -16 -23 -29 -44 -29 -47 0 -3 17 -10 38 -17 31 -9 45 -8 75 4 66 28 99 118 60 166 -22 26 -82 46 -88 28z"/>
 <path d="M3928 4353 c-27 -4 -27 -6 -27 -64 1 -39 -4 -68 -15 -84 -16 -25 -16 -25 15 -25 97 0 169 92 123 158 -15 22 -32 25 -96 15z"/>
 <path d="M845 4111 c-3 -6 -14 -38 -25 -72 -16 -49 -18 -64 -8 -71 27 -16 38 -8 38 29 0 26 8 45 27 65 22 23 24 30 13 43 -14 17 -36 20 -45 6z"/>
 <path d="M890 4048 c-31 -34 -27 -98 9 -137 37 -39 51 -39 51 -1 0 17 7 47 15 67 19 46 19 48 -7 73 -28 26 -42 25 -68 -2z"/>
 <path d="M1125 4037 c-102 -24 -117 -29 -136 -48 -20 -20 -26 -83 -9 -109 13 -21 122 -18 185 6 61 24 79 63 52 118 -18 39 -37 45 -92 33z"/>
 <path d="M753 3932 c-12 -2 -36 -16 -53 -32 -23 -22 -30 -36 -30 -67 0 -78 30 -80 65 -4 11 26 29 46 51 56 50 24 27 57 -33 47z"/>
 <path d="M615 3913 c-45 -10 -46 -13 -13 -42 36 -32 45 -31 59 7 7 18 6 28 -3 34 -7 4 -15 7 -18 7 -3 -1 -14 -3 -25 -6z"/>
 <path d="M769 3841 c-32 -32 -39 -46 -39 -79 0 -32 5 -43 26 -57 29 -19 27 -21 65 46 12 21 32 43 45 50 28 15 30 26 8 57 -23 34 -60 28 -105 -17z"/>
 <path d="M476 3839 c-21 -17 -26 -29 -26 -68 0 -64 16 -79 51 -45 15 14 48 36 74 48 l46 23 -26 31 c-32 39 -79 43 -119 11z"/>
 <path d="M361 3831 c-22 -40 -5 -75 24 -51 19 16 19 44 1 59 -12 10 -17 8 -25 -8z"/>
 <path d="M878 3786 c-33 -16 -73 -95 -64 -129 7 -31 28 -44 86 -53 l43 -7 -8 29 c-11 37 -11 68 -1 120 6 36 5 42 -13 47 -10 2 -30 0 -43 -7z"/>
 <path d="M1080 3793 c-14 -3 -48 -11 -77 -19 -47 -14 -53 -19 -58 -48 -8 -39 9 -109 30 -126 18 -15 100 1 173 35 50 23 52 25 52 65 0 23 -7 54 -15 70 -16 31 -36 35 -105 23z"/>
 <path d="M348 3749 c-13 -7 -18 -23 -18 -54 0 -52 22 -65 70 -40 22 12 30 22 30 43 -1 52 -40 76 -82 51z"/>
 <path d="M555 3748 c-40 -22 -55 -51 -55 -110 0 -31 4 -59 8 -62 5 -3 28 15 52 39 24 24 56 49 72 56 30 12 33 23 18 63 -8 21 -16 26 -42 26 -18 0 -42 -6 -53 -12z"/>
 <path d="M604 3631 c-32 -19 -64 -74 -64 -109 0 -22 19 -46 50 -62 17 -9 24 -3 53 42 19 29 44 62 56 72 27 24 27 41 -1 60 -30 21 -56 20 -94 -3z"/>
 <path d="M396 3631 c-6 -9 53 -35 61 -27 2 2 1 11 -3 20 -6 17 -49 22 -58 7z"/>
 <path d="M692 3545 c-61 -44 -66 -131 -9 -165 38 -24 47 -25 47 -5 0 8 15 44 32 80 26 51 30 69 22 83 -15 23 -64 27 -92 7z"/>
 <path d="M801 3483 c-29 -23 -56 -120 -40 -140 38 -45 167 -88 221 -73 41 12 48 24 48 91 0 45 -4 59 -22 76 -35 31 -78 50 -134 57 -41 6 -54 4 -73 -11z"/>
 <path d="M372 3451 c-20 -12 -10 -45 14 -49 31 -4 49 22 29 42 -19 18 -25 19 -43 7z"/>
 <path d="M448 3416 c-38 -29 -5 -106 39 -92 28 9 57 74 42 92 -14 18 -58 18 -81 0z"/>
 <path d="M549 3361 c-17 -17 -29 -40 -29 -55 0 -27 34 -70 50 -64 5 2 25 28 44 58 32 51 33 56 19 72 -23 26 -50 22 -84 -11z"/>
 <path d="M620 3291 c-11 -22 -13 -61 -4 -86 9 -24 58 -45 103 -45 31 0 44 6 60 26 51 65 5 124 -96 124 -41 0 -54 -4 -63 -19z"/>
 <path d="M837 3243 c-4 -3 -7 -14 -7 -24 0 -9 -16 -36 -35 -59 -38 -46 -42 -64 -21 -114 25 -60 92 -91 155 -71 31 9 61 83 60 146 -1 78 -8 90 -70 110 -60 20 -72 22 -82 12z"/>
 <path d="M2463 3130 c-32 -19 -33 -22 -33 -89 0 -64 2 -71 30 -94 16 -14 52 -30 80 -36 60 -13 436 -15 444 -3 3 5 -8 21 -24 37 l-29 28 -182 -5 c-179 -5 -184 -4 -205 17 -17 17 -24 40 -30 94 -3 39 -9 71 -13 71 -3 0 -21 -9 -38 -20z"/>
 <path d="M2354 2838 c-18 -16 -46 -33 -61 -37 l-28 -7 -2 -225 c-1 -123 2 -231 7 -239 10 -17 9 -20 34 76 11 42 16 105 16 208 l0 148 28 -7 c15 -5 52 -13 82 -20 41 -9 49 -13 32 -17 -16 -4 -22 -14 -22 -32 0 -32 21 -41 121 -57 63 -10 73 -9 91 7 14 14 40 20 95 23 70 3 78 1 93 -20 17 -21 20 -22 81 -12 96 16 119 28 119 58 0 35 -28 44 -51 17 -21 -26 -79 -31 -79 -7 0 12 -18 15 -92 16 -86 2 -82 3 47 10 179 10 218 15 256 35 17 8 33 14 35 12 2 -2 -5 -37 -14 -78 -17 -74 -18 -75 -63 -98 -25 -12 -83 -30 -130 -38 -110 -21 -364 -14 -491 13 -49 11 -88 16 -88 13 0 -3 9 -13 20 -23 16 -13 18 -21 10 -42 -16 -43 -7 -221 11 -210 4 3 13 30 19 60 20 95 30 73 30 -64 0 -72 4 -131 9 -131 4 0 29 -16 55 -36 26 -19 51 -34 56 -32 5 2 -4 31 -20 65 -17 35 -30 66 -30 71 0 5 14 21 31 38 33 31 32 23 14 145 -9 57 8 74 37 38 14 -16 19 -35 16 -61 -5 -48 7 -45 54 17 62 82 65 81 161 -38 21 -26 44 -47 51 -47 16 0 26 30 26 78 0 60 48 140 51 85 0 -10 4 -58 8 -108 l7 -90 -38 -76 c-21 -42 -38 -84 -38 -93 0 -16 2 -15 25 1 13 10 29 30 34 45 7 20 14 25 29 21 14 -3 25 3 37 21 14 22 18 54 19 184 l1 157 27 3 c23 3 28 -2 37 -35 6 -21 11 -71 11 -110 0 -40 4 -73 10 -73 16 0 30 36 30 77 1 56 20 18 28 -55 10 -99 20 -23 21 168 1 115 5 170 11 160 5 -8 12 -34 16 -57 8 -53 20 -55 29 -5 5 33 -10 211 -19 220 -2 2 -109 -4 -237 -14 -268 -19 -446 -14 -558 14 l-74 19 -33 -29z m112 -29 c3 -6 2 -15 -3 -20 -13 -13 -43 -1 -43 17 0 16 36 19 46 3z m104 -9 c0 -12 -38 -23 -51 -14 -9 5 -7 11 5 20 18 13 46 9 46 -6z m98 -17 c-4 -22 -48 -31 -48 -10 0 19 10 27 32 27 13 0 18 -6 16 -17z m-55 -73 c-13 -5 -23 -16 -23 -25 0 -27 -65 -13 -73 16 -5 17 1 19 56 18 47 0 57 -2 40 -9z"/>
 <path d="M2181 2178 c-45 -40 -81 -80 -81 -89 0 -9 -10 -20 -22 -24 -19 -6 -16 -9 22 -15 25 -4 93 -11 151 -15 103 -7 107 -7 118 14 14 26 61 29 61 5 0 -14 -3 -14 -15 -4 -10 8 -15 9 -15 2 0 -17 30 -29 93 -36 67 -9 89 -27 86 -70 -6 -85 -2 -92 61 -135 64 -44 97 -53 85 -23 -4 9 -20 52 -36 95 -39 104 -51 126 -91 164 -32 31 -310 203 -328 203 -5 0 -45 -32 -89 -72z m134 -107 c3 -5 -4 -13 -16 -16 -23 -8 -34 -1 -24 14 8 13 32 14 40 2z"/>
 <path d="M3127 2206 c-31 -19 -93 -61 -139 -93 -46 -32 -94 -66 -106 -74 -16 -10 -36 -47 -61 -114 -21 -55 -42 -109 -46 -119 -8 -17 -5 -19 34 -13 77 10 127 84 119 176 -3 35 -2 36 42 48 25 6 88 12 141 12 111 1 192 14 227 37 l25 16 -45 45 c-29 29 -65 52 -99 65 -37 13 -44 18 -24 16 17 -2 92 -37 167 -78 l137 -75 1 -52 c0 -29 5 -53 10 -53 6 0 10 17 10 38 0 21 5 43 12 50 15 15 19 11 -87 68 -49 26 -123 67 -163 91 -41 24 -79 43 -86 43 -7 0 -38 -15 -69 -34z"/>
 <path d="M2675 2178 c30 -16 30 -16 10 -38 -10 -11 -26 -20 -37 -20 -10 0 -18 -4 -18 -9 0 -16 29 -91 65 -166 19 -41 35 -79 35 -86 0 -6 6 -9 13 -7 8 3 14 39 17 112 4 80 9 109 20 116 36 23 39 4 10 -70 -11 -28 -20 -60 -20 -70 0 -62 49 33 70 133 11 56 11 59 -13 81 -19 18 -41 24 -98 29 -57 5 -69 3 -54 -5z"/>
 <path d="M2087 1966 c-4 -10 -7 -92 -7 -183 l0 -165 43 7 c41 6 174 42 332 88 l80 24 3 110 3 111 -28 6 c-15 3 -116 9 -224 13 -180 5 -196 5 -202 -11z m378 -126 l0 -65 -125 -32 c-69 -18 -140 -32 -157 -32 l-33 -1 0 93 c0 52 3 97 7 101 4 3 75 5 157 4 l151 -3 0 -65z"/>
 <path d="M3091 1968 c-63 -4 -121 -10 -128 -12 -11 -4 -13 -30 -11 -112 l3 -107 40 -14 c72 -25 339 -100 378 -106 l37 -6 0 180 0 179 -62 2 c-115 4 -142 3 -257 -4z m210 -63 l37 -6 4 -67 c3 -37 1 -82 -4 -100 -11 -38 7 -38 -181 5 -59 14 -114 31 -122 40 -14 13 -22 113 -11 124 8 7 237 11 277 4z"/>
 <path d="M2580 1773 c0 -5 11 -20 25 -33 14 -13 25 -19 25 -13 0 5 -11 20 -25 33 -14 13 -25 19 -25 13z"/>
 <path d="M2889 1762 c-23 -14 -25 -19 -13 -30 10 -9 11 -18 4 -32 -5 -10 -10 -36 -10 -58 0 -41 -23 -73 -40 -56 -5 5 -10 34 -12 64 l-3 55 -73 3 c-67 3 -73 1 -81 -20 -5 -13 -6 -47 -4 -75 l6 -53 46 0 c73 0 154 -26 275 -87 74 -38 127 -73 160 -106 l50 -50 72 6 c73 7 249 56 226 64 -7 3 -31 -2 -53 -11 -21 -9 -48 -16 -59 -16 -21 0 -45 34 -35 50 3 5 1 37 -4 71 -7 40 -7 68 -1 80 13 24 3 29 -140 69 -286 79 -278 76 -282 115 l-3 35 -26 -18z m226 -142 c4 -6 -5 -10 -19 -10 -14 0 -26 5 -26 10 0 6 9 10 19 10 11 0 23 -4 26 -10z m89 -35 c-4 -8 -10 -15 -15 -15 -5 0 -9 7 -9 15 0 8 7 15 15 15 9 0 12 -6 9 -15z m-224 -9 c0 -2 3 -11 6 -20 5 -12 0 -16 -20 -16 -24 0 -35 18 -19 33 7 8 33 10 33 3z m234 -172 c24 -9 19 -21 -10 -28 -31 -8 -37 -5 -28 18 7 17 14 19 38 10z"/>
 <path d="M2575 1700 c-18 -11 -67 -23 -120 -30 -88 -10 -205 -40 -315 -79 l-55 -19 -2 -50 -1 -49 101 -38 c146 -54 170 -55 232 -11 28 20 77 50 110 67 112 59 146 94 85 87 -16 -1 -30 1 -30 5 0 4 0 12 0 18 0 7 12 10 30 7 39 -6 45 13 21 68 -11 24 -21 44 -23 43 -2 0 -16 -9 -33 -19z m-155 -69 c0 -5 -10 -7 -22 -3 -17 4 -20 2 -15 -11 4 -10 2 -17 -3 -17 -11 0 -13 23 -3 33 10 10 43 8 43 -2z m-210 -72 c7 -11 10 -23 7 -25 -9 -9 -57 8 -57 20 0 32 35 35 50 5z m247 -55 c5 -16 -40 -26 -48 -12 -4 7 -5 16 -2 21 7 11 46 5 50 -9z"/>
 <path d="M3375 1571 c6 -5 24 -13 40 -17 20 -4 27 -3 20 3 -5 6 -23 14 -40 17 -20 5 -27 4 -20 -3z"/>
 </g>

</svg>